# xmcd
#
# Track frame offsets:
#	150
#	18900
#	43030
#	61745
#
# Disc length: 1139 seconds
#
# Revision: 1
# Processed by: cddbd v1.5.1PL0 Copyright (c) Steve Scherf et al.
# Submitted via: CDex 1.50Beta5
#
DISCID=27047104
DTITLE=跡部景吾 - ・・・みたいなアルケー。
DYEAR=1900
DGENRE=Music
TTITLE0=・・・みたいなアルケー。
TTITLE1=CHASER〜穢れなき追撃者〜
TTITLE2=・・・みたいなアルケー。(Original Karaoke)
TTITLE3=CHASER〜穢れなき追撃者〜(Original Karaoke)
EXTD=
EXTT0=
EXTT1=
EXTT2=
EXTT3=
PLAYORDER=
